<svg xmlns="http://www.w3.org/2000/svg" viewBox="0 0 512 512" width="512" height="512">
  <g transform="translate(0,512) scale(0.1,-0.1)">
    <path fill="#145028" d="
      M3516 3883 c109 -93 160 -144 162 -160 2 -14 -15 -58 -41 -106
      -24 -45 -56 -105 -71 -133 l-28 -51 40 -84 c22 -46 52 -119 67 -161
      l27 -77 152 -36 c83 -20 157 -41 164 -47 9 -8 12 -63 12 -213
      0 -150 -3 -205 -12 -213 -7 -5 -80 -27 -163 -49 l-150 -38
      -36 -100 c-20 -55 -50 -129 -68 -165 l-32 -66 81 -142
      c56 -99 78 -147 72 -157 -4 -9 -68 -78 -141 -155
      -89 -94 -139 -140 -154 -140 -11 0 -37 11 -56 24
      -20 13 -78 49 -128 80 l-93 56 -66 -37 c-36 -20
      -109 -53 -162 -74 l-97 -38 -30 -150 c-17 -83 -35 -155
      -40 -160 -10 -10 -369 -32 -390 -24 -6 2 -28 64 -50 138
      -21 75 -42 140 -46 147 -4 6 -30 13 -58 16 l-51 5 -1 96
      c0 53 -2 123 -2 156 l-2 60 65 -5 c36 -3 137 -5 225 -4
      133 0 174 4 245 23 175 47 336 140 462 268 93 94 142 162
      195 268 155 310 159 636 14 940 -71 149 -206 316 -311 387
      l-25 17 32 0 c17 1 35 6 38 11 15 24 218 200 225 195
      5 -3 12 0 16 6 5 8 3 9 -7 4 -12 -8 -12 -6 0 8
      28 35 56 20 217 -120z
    "/>
    <path fill="#228B22" d="
      M2648 3814 c325 -66 591 -339 668 -686 25 -109 22 -291 -4 -401
      -77 -314 -293 -559 -582 -659 -114 -40 -184 -48 -401 -48
      l-209 0 2 223 3 222 205 5 205 5 68 32 c227 108 321 401
      204 636 -40 79 -109 147 -194 189 l-68 33 -297 3 -298 3
      0 -999 c0 -788 -3 -1002 -12 -1009 -7 -6 -110 -34 -228 -62
      -118 -29 -221 -54 -227 -56 -10 -4 -13 259 -13 1290
      l0 1295 550 0 c461 0 563 -3 628 -16z
    "/>
  </g>
</svg>
